<svg width="8" height="8" viewBox="0 0 8 8" fill="none" xmlns="http://www.w3.org/2000/svg">
<path id="Vector" fill-rule="evenodd" clip-rule="evenodd" d="M0.640356 0.847356C0.549277 0.753055 0.49888 0.626754 0.500019 0.495655C0.501158 0.364557 0.553743 0.239151 0.646447 0.146447C0.739151 0.0537427 0.864558 0.00115811 0.995656 1.89012e-05C1.12675 -0.00112031 1.25306 0.0492771 1.34736 0.140356L4.24386 3.03686L7.14036 0.140356C7.23466 0.0492771 7.36096 -0.00112031 7.49206 1.89012e-05C7.62315 0.00115811 7.74856 0.0537427 7.84127 0.146447C7.93397 0.239151 7.98655 0.364557 7.98769 0.495655C7.98883 0.626754 7.93843 0.753055 7.84736 0.847356L4.95086 3.74386L7.84736 6.64036C7.89511 6.68648 7.9332 6.74165 7.95941 6.80265C7.98561 6.86366 7.9994 6.92927 7.99998 6.99566C8.00056 7.06204 7.98791 7.12788 7.96277 7.18933C7.93763 7.25078 7.9005 7.30661 7.85355 7.35355C7.80661 7.4005 7.75078 7.43763 7.68933 7.46277C7.62788 7.48791 7.56204 7.50056 7.49566 7.49998C7.42927 7.4994 7.36366 7.48561 7.30265 7.45941C7.24165 7.4332 7.18648 7.39511 7.14036 7.34736L4.24386 4.45086L1.34736 7.34736C1.25306 7.43843 1.12675 7.48883 0.995656 7.48769C0.864558 7.48655 0.739151 7.43397 0.646447 7.34126C0.553743 7.24856 0.501158 7.12315 0.500019 6.99206C0.49888 6.86096 0.549277 6.73466 0.640356 6.64036L3.53686 3.74386L0.640356 0.847356Z" fill="#06177C"/>
</svg>
